<?xml version="1.0" standalone="no"?>
<!DOCTYPE svg PUBLIC "-//W3C//DTD SVG 20010904//EN"
 "http://www.w3.org/TR/2001/REC-SVG-20010904/DTD/svg10.dtd">
<svg version="1.0" xmlns="http://www.w3.org/2000/svg"
 width="512.000000pt" height="512.000000pt" viewBox="0 0 512.000000 512.000000"
 preserveAspectRatio="xMidYMid meet">
<metadata>
Created by potrace 1.11, written by Peter Selinger 2001-2013
</metadata>
<g transform="translate(0.000000,512.000000) scale(0.100000,-0.100000)"
fill="#000000" stroke="none">
<path d="M873 4882 c-52 -3 -53 -3 -53 -35 1 -30 12 -127 26 -207 38 -231 195
-605 336 -802 169 -234 308 -378 498 -517 l78 -57 -13 -31 c-48 -114 -79 -298
-77 -447 1 -55 5 -103 9 -107 9 -8 202 40 253 63 19 9 60 26 90 38 30 12 89
42 131 66 l76 44 84 -21 c203 -50 410 -148 544 -258 173 -143 322 -362 404
-595 99 -281 120 -513 67 -741 -8 -33 -13 -61 -11 -63 12 -12 160 101 246 188
169 171 285 389 340 641 38 177 45 527 14 748 -15 106 -104 391 -172 551 -108
251 -200 389 -434 649 -82 92 -120 129 -219 215 -45 38 -352 246 -364 246 -4
0 -25 12 -48 26 -55 35 -237 126 -308 154 -56 23 -243 89 -270 96 -8 2 -53 15
-100 29 -128 39 -284 70 -445 89 -96 12 -140 17 -174 22 -98 13 -392 23 -508
16z m491 -254 c75 -66 5 -189 -90 -158 -37 13 -64 48 -64 86 0 32 28 82 49 87
42 12 81 6 105 -15z m630 -407 c27 -114 0 -238 -74 -341 -111 -157 -314 -208
-488 -124 -45 22 -169 130 -160 140 2 1 37 -14 78 -34 118 -57 238 -53 372 13
151 74 239 227 232 400 -2 57 -2 59 12 33 7 -15 20 -54 28 -87z"/>
<path d="M3211 4286 c317 -317 517 -568 624 -785 55 -110 116 -275 176 -471
35 -113 49 -150 55 -135 19 52 47 123 59 150 28 64 175 442 175 451 0 14 -115
190 -173 264 -125 161 -283 271 -567 397 -104 46 -361 141 -349 129z"/>
<path d="M3636 1317 c-141 -142 -426 -291 -616 -322 -25 -4 -54 -9 -65 -11
-136 -27 -440 -20 -547 12 -9 3 -25 6 -35 8 -28 6 -194 71 -241 95 l-40 20 18
-48 c49 -135 55 -251 21 -397 -39 -161 -108 -274 -231 -376 -26 -22 -39 -38
-30 -39 8 0 24 -2 35 -4 118 -23 355 -23 465 0 14 3 36 7 50 10 52 10 182 46
272 76 395 132 661 359 906 774 40 68 122 246 122 266 0 17 -15 6 -84 -64z"/>
</g>
</svg>
